<svg xmlns="http://www.w3.org/2000/svg" width="142" height="30" viewBox="0 0 142 30" fill="none">
    <path d="M21.4648 11.1895C23.5619 11.1895 25.2676 13.208 25.2676 15.3008V25.0576C25.2675 27.2866 23.4347 29.197 21.2012 29.1973H3.90137C1.78502 29.1973 0.0185547 27.3815 0.0185547 25.2695C0.0186076 23.1576 1.78505 21.5391 3.90137 21.5391H13.6064C15.8401 21.5391 17.7635 19.6412 17.7637 17.4121V15.3027C17.7638 13.2102 19.368 11.1897 21.4648 11.1895ZM34.8408 25.3213C35.0916 25.3213 35.3165 25.3604 35.5146 25.4395C35.7153 25.5161 35.8887 25.6229 36.0342 25.7588L35.8828 26C35.8527 26.054 35.8066 26.081 35.7441 26.0811C35.7065 26.0811 35.6639 26.0672 35.6162 26.04C35.5686 26.0129 35.5096 25.9833 35.4395 25.9512C35.3717 25.9166 35.2897 25.8856 35.1943 25.8584C35.099 25.8288 34.9859 25.8145 34.8555 25.8145C34.7427 25.8145 34.641 25.8288 34.5508 25.8584C34.4605 25.8856 34.3826 25.9242 34.3174 25.9736C34.2548 26.0229 34.206 26.0809 34.1709 26.1475C34.1383 26.2117 34.1211 26.2827 34.1211 26.3594C34.1211 26.4557 34.1489 26.5364 34.2041 26.6006C34.2618 26.6648 34.3379 26.7197 34.4307 26.7666C34.5234 26.8135 34.6283 26.8565 34.7461 26.8936C34.8639 26.9281 34.9846 26.9658 35.1074 27.0078C35.2328 27.0473 35.3548 27.0922 35.4727 27.1416C35.5906 27.191 35.6962 27.253 35.7891 27.3271C35.8819 27.4013 35.9556 27.4928 36.0107 27.6016C36.0684 27.7078 36.0977 27.8365 36.0977 27.9873C36.0976 28.1601 36.0665 28.3206 36.0039 28.4688C35.9412 28.6146 35.8476 28.7418 35.7246 28.8506C35.6017 28.9568 35.4515 29.0408 35.2734 29.1025C35.0953 29.1643 34.8895 29.1953 34.6562 29.1953C34.3903 29.1953 34.1494 29.1533 33.9336 29.0693C33.7178 28.9828 33.5344 28.8727 33.3838 28.7393L33.542 28.4873C33.562 28.4552 33.5857 28.4304 33.6133 28.4131C33.6409 28.3958 33.6775 28.3877 33.7227 28.3877C33.7678 28.3877 33.8151 28.4049 33.8652 28.4395C33.9153 28.474 33.9758 28.5118 34.0459 28.5537C34.1186 28.5957 34.2054 28.6344 34.3057 28.6689C34.4084 28.7035 34.5366 28.7207 34.6895 28.7207C34.8198 28.7207 34.9344 28.7049 35.0322 28.6729C35.1301 28.6382 35.2121 28.592 35.2773 28.5352C35.3424 28.4784 35.3899 28.4129 35.4199 28.3389C35.4525 28.2647 35.4688 28.1856 35.4688 28.1016C35.4687 27.9979 35.4405 27.9124 35.3828 27.8457C35.3276 27.7765 35.253 27.7188 35.1602 27.6719C35.0674 27.6225 34.9611 27.5805 34.8408 27.5459C34.7229 27.5088 34.601 27.4702 34.4756 27.4307C34.3526 27.3911 34.2308 27.3463 34.1104 27.2969C33.9924 27.245 33.8868 27.1811 33.7939 27.1045C33.7011 27.0279 33.6261 26.9335 33.5684 26.8223C33.5132 26.7086 33.4854 26.5717 33.4854 26.4111C33.4854 26.2678 33.516 26.1309 33.5762 26C33.6363 25.8667 33.7236 25.7502 33.8389 25.6514C33.9543 25.55 34.0965 25.4695 34.2646 25.4102C34.4328 25.3508 34.625 25.3213 34.8408 25.3213ZM43.6533 27.7754C43.6533 28.0596 43.7196 28.2798 43.8525 28.4355C43.9855 28.5913 44.1866 28.6689 44.4551 28.6689C44.6508 28.6689 44.8357 28.6237 45.0088 28.5322C45.1818 28.4408 45.3409 28.3133 45.4863 28.1504V25.3799H46.1562V29.1367H45.7578C45.6625 29.1367 45.6022 29.0904 45.5771 28.999L45.5244 28.5947C45.3588 28.7752 45.1726 28.921 44.9668 29.0322C44.761 29.141 44.5248 29.1953 44.2588 29.1953C44.0508 29.1953 43.8665 29.1623 43.7061 29.0957C43.548 29.0265 43.4145 28.9302 43.3066 28.8066C43.1987 28.6831 43.1177 28.5329 43.0625 28.3574C43.0098 28.182 42.9834 27.9879 42.9834 27.7754V25.3799H43.6533V27.7754ZM48.1455 25.4541H49.2363V25.9326H48.1455V28.1875C48.1456 28.3454 48.1841 28.4625 48.2617 28.5391C48.3394 28.6156 48.4397 28.6542 48.5625 28.6543C48.6327 28.6543 48.693 28.6452 48.7432 28.6279C48.7958 28.6082 48.8413 28.5876 48.8789 28.5654C48.9165 28.5432 48.9485 28.5232 48.9736 28.5059C49.0011 28.4863 49.0249 28.4766 49.0449 28.4766C49.0799 28.4767 49.1112 28.4973 49.1387 28.5391L49.335 28.8545C49.2196 28.9607 49.08 29.0447 48.917 29.1064C48.7539 29.1658 48.5853 29.1953 48.4121 29.1953C48.1111 29.1953 47.8789 29.1128 47.7158 28.9473C47.5552 28.7817 47.4746 28.5429 47.4746 28.2314V25.9326H47.0156C46.9756 25.9326 46.9416 25.9216 46.9141 25.8994C46.8865 25.8747 46.873 25.8375 46.873 25.7881V25.5254L47.498 25.4473L47.6523 24.2861C47.6574 24.2493 47.6737 24.2194 47.7012 24.1973C47.7287 24.1727 47.7641 24.1602 47.8066 24.1602H48.1455V25.4541ZM61.498 25.3213C61.7489 25.3213 61.9737 25.3604 62.1719 25.4395C62.3726 25.5161 62.5459 25.6228 62.6914 25.7588L62.541 26C62.5109 26.0542 62.464 26.0811 62.4014 26.0811C62.3638 26.081 62.321 26.0672 62.2734 26.04C62.2258 26.0129 62.1668 25.9832 62.0967 25.9512C62.0289 25.9166 61.9469 25.8856 61.8516 25.8584C61.7564 25.8289 61.6438 25.8145 61.5137 25.8145C61.4007 25.8145 61.2983 25.8287 61.208 25.8584C61.1178 25.8856 61.0398 25.9242 60.9746 25.9736C60.9121 26.023 60.8632 26.0809 60.8281 26.1475C60.7955 26.2117 60.7793 26.2827 60.7793 26.3594C60.7793 26.4557 60.8071 26.5364 60.8623 26.6006C60.9199 26.6647 60.9953 26.7197 61.0879 26.7666C61.1807 26.8136 61.2864 26.8565 61.4043 26.8936C61.5221 26.9281 61.6428 26.9658 61.7656 27.0078C61.8911 27.0474 62.0129 27.0922 62.1309 27.1416C62.2486 27.191 62.3536 27.2531 62.4463 27.3271C62.5391 27.4013 62.6137 27.4928 62.6689 27.6016C62.7266 27.7078 62.7559 27.8366 62.7559 27.9873C62.7558 28.1602 62.7238 28.3206 62.6611 28.4688C62.5984 28.6145 62.5057 28.7418 62.3828 28.8506C62.2598 28.9569 62.1088 29.0407 61.9307 29.1025C61.7526 29.1643 61.5467 29.1953 61.3135 29.1953C61.0476 29.1953 60.8066 29.1533 60.5908 29.0693C60.3751 28.9828 60.1915 28.8727 60.041 28.7393L60.1992 28.4873C60.2193 28.4552 60.2439 28.4304 60.2715 28.4131C60.299 28.396 60.3351 28.3877 60.3799 28.3877C60.4251 28.3877 60.4733 28.4048 60.5234 28.4395C60.5736 28.474 60.634 28.5118 60.7041 28.5537C60.7769 28.5957 60.8635 28.6343 60.9639 28.6689C61.0667 28.7035 61.1946 28.7207 61.3477 28.7207C61.4781 28.7207 61.5926 28.705 61.6904 28.6729C61.7882 28.6383 61.8694 28.592 61.9346 28.5352C61.9998 28.4783 62.048 28.413 62.0781 28.3389C62.1107 28.2648 62.127 28.1855 62.127 28.1016C62.1269 27.9979 62.0977 27.9124 62.04 27.8457C61.9849 27.7767 61.911 27.7188 61.8184 27.6719C61.7255 27.6224 61.6185 27.5805 61.498 27.5459C61.3801 27.5088 61.2583 27.4702 61.1328 27.4307C61.0099 27.3911 60.8879 27.3463 60.7676 27.2969C60.6499 27.245 60.5448 27.1809 60.4521 27.1045C60.3593 27.0279 60.2833 26.9335 60.2256 26.8223C60.1705 26.7087 60.1436 26.5716 60.1436 26.4111C60.1436 26.2679 60.1733 26.1309 60.2334 26C60.2936 25.8666 60.3817 25.7502 60.4971 25.6514C60.6124 25.5501 60.7539 25.4695 60.9219 25.4102C61.09 25.3508 61.2823 25.3213 61.498 25.3213ZM38.5078 25.3213C38.7862 25.3213 39.0375 25.3666 39.2607 25.458C39.4864 25.5494 39.6765 25.6797 39.832 25.8477C39.99 26.0156 40.1106 26.2194 40.1934 26.459C40.2787 26.6963 40.3223 26.9627 40.3223 27.2568C40.3222 27.5533 40.2786 27.8204 40.1934 28.0576C40.1106 28.2947 39.99 28.497 39.832 28.665C39.6765 28.833 39.4864 28.9632 39.2607 29.0547C39.0375 29.1436 38.7862 29.1884 38.5078 29.1885C38.2293 29.1885 37.9768 29.1437 37.751 29.0547C37.5276 28.9632 37.3368 28.8331 37.1787 28.665C37.0208 28.497 36.8988 28.2947 36.8135 28.0576C36.7282 27.8204 36.6856 27.5533 36.6855 27.2568C36.6855 26.9627 36.7282 26.6963 36.8135 26.459C36.8988 26.2194 37.0207 26.0157 37.1787 25.8477C37.3368 25.6796 37.5276 25.5495 37.751 25.458C37.9768 25.3666 38.2293 25.3213 38.5078 25.3213ZM53.5342 25.3213C53.8126 25.3213 54.0639 25.3666 54.2871 25.458C54.5129 25.5495 54.7038 25.6796 54.8594 25.8477C55.0174 26.0157 55.1379 26.2194 55.2207 26.459C55.306 26.6963 55.3486 26.9627 55.3486 27.2568C55.3486 27.5533 55.306 27.8204 55.2207 28.0576C55.1379 28.2947 55.0174 28.4971 54.8594 28.665C54.7038 28.8331 54.513 28.9632 54.2871 29.0547C54.0638 29.1436 53.8126 29.1885 53.5342 29.1885C53.2559 29.1884 53.004 29.1436 52.7783 29.0547C52.555 28.9632 52.3641 28.8331 52.2061 28.665C52.0481 28.497 51.9261 28.2947 51.8408 28.0576C51.7555 27.8204 51.7129 27.5533 51.7129 27.2568C51.7129 26.9627 51.7555 26.6963 51.8408 26.459C51.9261 26.2194 52.048 26.0157 52.2061 25.8477C52.3641 25.6796 52.555 25.5495 52.7783 25.458C53.004 25.3667 53.2559 25.3213 53.5342 25.3213ZM41.8926 29.1367H41.2227V23.6748H41.8926V29.1367ZM50.8105 29.1367H50.1406V25.3799H50.8105V29.1367ZM58.0713 25.3213C58.2795 25.3213 58.463 25.3556 58.6211 25.4248C58.7817 25.4915 58.9151 25.5878 59.0205 25.7139C59.1284 25.8374 59.2094 25.9876 59.2646 26.1631C59.3198 26.3385 59.3477 26.5327 59.3477 26.7451V29.1367H58.6777V26.7451C58.6777 26.461 58.6114 26.2407 58.4785 26.085C58.348 25.9268 58.1469 25.8477 57.876 25.8477C57.6777 25.8477 57.4915 25.8944 57.3184 25.9883C57.1479 26.0822 56.9901 26.2096 56.8447 26.3701V29.1367H56.1748V25.3799H56.5732C56.6686 25.3799 56.7288 25.4262 56.7539 25.5176L56.8066 25.9258C56.9723 25.7454 57.1571 25.5995 57.3604 25.4883C57.566 25.3771 57.8029 25.3213 58.0713 25.3213ZM38.5078 25.8398C38.3171 25.8398 38.1512 25.8723 38.0107 25.9365C37.8702 26.0008 37.7526 26.0938 37.6572 26.2148C37.5644 26.3359 37.494 26.4852 37.4463 26.6631C37.4011 26.8385 37.378 27.0375 37.3779 27.2598C37.3779 27.4822 37.4011 27.6819 37.4463 27.8574C37.494 28.0328 37.5644 28.1807 37.6572 28.3018C37.7526 28.4204 37.8702 28.5119 38.0107 28.5762C38.1513 28.6404 38.3171 28.6729 38.5078 28.6729C38.8841 28.6728 39.1649 28.5489 39.3506 28.3018C39.5362 28.0521 39.6289 27.7046 39.6289 27.2598C39.6288 26.8126 39.5362 26.4644 39.3506 26.2148C39.1649 25.9653 38.8841 25.8399 38.5078 25.8398ZM53.5342 25.8398C53.3438 25.8399 53.1784 25.8724 53.0381 25.9365C52.8976 26.0008 52.779 26.0937 52.6836 26.2148C52.5909 26.3359 52.5203 26.4853 52.4727 26.6631C52.4275 26.8385 52.4053 27.0375 52.4053 27.2598C52.4053 27.4822 52.4275 27.6819 52.4727 27.8574C52.5203 28.0327 52.5909 28.1807 52.6836 28.3018C52.779 28.4204 52.8976 28.5119 53.0381 28.5762C53.1785 28.6403 53.3437 28.6728 53.5342 28.6729C53.9106 28.6729 54.1922 28.5489 54.3779 28.3018C54.5635 28.0521 54.6562 27.7045 54.6562 27.2598C54.6562 26.8127 54.5635 26.4644 54.3779 26.2148C54.1922 25.9652 53.9106 25.8398 53.5342 25.8398ZM50.4795 23.7266C50.5446 23.7266 50.6064 23.739 50.6641 23.7637C50.7216 23.7884 50.7719 23.8228 50.8145 23.8672C50.8596 23.9092 50.8948 23.9602 50.9199 24.0195C50.9475 24.0763 50.9609 24.137 50.9609 24.2012C50.9609 24.2653 50.9474 24.326 50.9199 24.3828C50.8949 24.4371 50.8595 24.4868 50.8145 24.5312C50.7718 24.5732 50.7217 24.6071 50.6641 24.6318C50.6064 24.6565 50.5446 24.6689 50.4795 24.6689C50.4144 24.6689 50.3526 24.6565 50.2949 24.6318C50.2398 24.6071 50.1897 24.5732 50.1445 24.5312C50.1019 24.4868 50.0681 24.4372 50.043 24.3828C50.0179 24.326 50.0049 24.2654 50.0049 24.2012C50.0049 24.137 50.0179 24.0763 50.043 24.0195C50.0681 23.9603 50.1019 23.9092 50.1445 23.8672C50.1896 23.8229 50.2399 23.7883 50.2949 23.7637C50.3526 23.739 50.4143 23.7266 50.4795 23.7266ZM38.5234 8.6377C38.9555 8.63771 39.3722 8.67684 39.7734 8.75586C40.1823 8.83487 40.5641 8.94569 40.9189 9.08789C41.2739 9.23015 41.5984 9.40007 41.8916 9.59766C42.1847 9.78727 42.4433 9.99648 42.667 10.2256L41.8574 11.5186C41.7648 11.6686 41.6637 11.7747 41.5557 11.8379C41.4554 11.9011 41.3241 11.9326 41.1621 11.9326C40.9925 11.9326 40.8229 11.8972 40.6533 11.8262C40.4836 11.7471 40.2983 11.6641 40.0977 11.5771C39.9047 11.4902 39.6844 11.411 39.4375 11.3398C39.1906 11.2609 38.909 11.2217 38.5928 11.2217C38.1375 11.2217 37.786 11.3124 37.5391 11.4941C37.2999 11.668 37.1807 11.9134 37.1807 12.2295C37.1807 12.4586 37.2578 12.6487 37.4121 12.7988C37.5741 12.9489 37.7866 13.0827 38.0488 13.2012C38.3112 13.3118 38.6086 13.4187 38.9404 13.5215C39.2721 13.6242 39.6119 13.7388 39.959 13.8652C40.3061 13.9917 40.6458 14.1426 40.9775 14.3164C41.3091 14.4823 41.6059 14.6916 41.8682 14.9443C42.1305 15.1893 42.3388 15.49 42.4932 15.8457C42.6552 16.2013 42.7363 16.6281 42.7363 17.126C42.7363 17.7344 42.6281 18.2959 42.4121 18.8096C42.1961 19.323 41.8723 19.7654 41.4404 20.1367C41.016 20.5082 40.4872 20.7965 39.8545 21.002C39.2294 21.2074 38.5074 21.3105 37.6895 21.3105C37.2806 21.3105 36.8717 21.2714 36.4629 21.1924C36.0539 21.1133 35.6564 21.0064 35.2705 20.8721C34.8924 20.7377 34.5409 20.5792 34.2168 20.3975C33.8929 20.2078 33.6152 20.0063 33.3838 19.793L34.2168 18.4414C34.3171 18.2833 34.4373 18.1612 34.5762 18.0742C34.7151 17.9794 34.8963 17.9316 35.1201 17.9316C35.3285 17.9316 35.5137 17.9794 35.6758 18.0742C35.8455 18.169 36.0269 18.2713 36.2197 18.3818C36.4127 18.4925 36.6369 18.5956 36.8916 18.6904C37.1539 18.7852 37.4816 18.833 37.875 18.833C38.1528 18.833 38.3882 18.8053 38.5811 18.75C38.7739 18.6868 38.9282 18.6037 39.0439 18.501C39.1597 18.3983 39.2448 18.2836 39.2988 18.1572C39.3528 18.0308 39.3799 17.9 39.3799 17.7656C39.3798 17.5207 39.2987 17.3192 39.1367 17.1611C38.9747 17.0031 38.7623 16.8685 38.5 16.7578C38.2378 16.6394 37.9369 16.5333 37.5977 16.4385C37.2658 16.3357 36.9254 16.2202 36.5781 16.0938C36.2312 15.9674 35.8881 15.8173 35.5488 15.6436C35.217 15.4618 34.9196 15.2365 34.6572 14.9678C34.3949 14.6912 34.1826 14.3551 34.0205 13.96C33.8585 13.5648 33.7773 13.0864 33.7773 12.5254C33.7774 12.004 33.8736 11.5101 34.0664 11.0439C34.267 10.5697 34.5644 10.1545 34.958 9.79883C35.3515 9.44323 35.8453 9.1625 36.4395 8.95703C37.0337 8.74363 37.7286 8.6377 38.5234 8.6377ZM48.0713 16.6279C48.0713 17.2363 48.2066 17.7062 48.4766 18.0381C48.7467 18.37 49.1442 18.5361 49.6689 18.5361C50.0624 18.5361 50.4291 18.4531 50.7686 18.2871C51.1157 18.1211 51.4514 17.8881 51.7754 17.5879V8.82715H55.3643V21.1211H53.1416C52.6942 21.1211 52.4007 20.9156 52.2617 20.5049L52.042 19.793C51.8105 20.0222 51.5712 20.2322 51.3242 20.4219C51.0773 20.6036 50.8108 20.7612 50.5254 20.8955C50.2476 21.022 49.9462 21.1213 49.6221 21.1924C49.2981 21.2713 48.9432 21.3105 48.5576 21.3105C47.9017 21.3105 47.3189 21.196 46.8096 20.9668C46.308 20.7297 45.8834 20.4013 45.5361 19.9824C45.189 19.5636 44.9265 19.0699 44.749 18.501C44.5716 17.932 44.4834 17.3076 44.4834 16.6279V8.82715H48.0713V16.6279ZM62.1484 8.6377C62.5806 8.6377 62.9981 8.67682 63.3994 8.75586C63.8082 8.83489 64.1901 8.94568 64.5449 9.08789C64.8999 9.23015 65.2243 9.40008 65.5176 9.59766C65.8107 9.78728 66.0693 9.99648 66.293 10.2256L65.4824 11.5186C65.3899 11.6684 65.2895 11.7747 65.1816 11.8379C65.0813 11.9011 64.9501 11.9326 64.7881 11.9326C64.6183 11.9326 64.4481 11.8973 64.2783 11.8262C64.1086 11.7472 63.9232 11.664 63.7227 11.5771C63.5299 11.4903 63.3102 11.4109 63.0635 11.3398C62.8165 11.2608 62.5342 11.2217 62.2178 11.2217C61.7628 11.2217 61.4119 11.3125 61.165 11.4941C60.9258 11.668 60.8057 11.9134 60.8057 12.2295C60.8057 12.4586 60.8828 12.6487 61.0371 12.7988C61.1991 12.9489 61.4117 13.0827 61.6738 13.2012C61.9362 13.3118 62.2337 13.4187 62.5654 13.5215C62.8972 13.6242 63.2368 13.7388 63.584 13.8652C63.9312 13.9917 64.2707 14.1425 64.6025 14.3164C64.9344 14.4824 65.2318 14.6914 65.4941 14.9443C65.7565 15.1893 65.9648 15.4901 66.1191 15.8457C66.2811 16.2013 66.3623 16.6282 66.3623 17.126C66.3623 17.7344 66.2541 18.2959 66.0381 18.8096C65.822 19.3231 65.4975 19.7654 65.0654 20.1367C64.641 20.5081 64.1122 20.7965 63.4795 21.002C62.8545 21.2074 62.1333 21.3105 61.3154 21.3105C60.9066 21.3105 60.4977 21.2713 60.0889 21.1924C59.68 21.1134 59.2822 21.0064 58.8965 20.8721C58.5184 20.7377 58.1669 20.5792 57.8428 20.3975C57.5188 20.2078 57.2412 20.0063 57.0098 19.793L57.8428 18.4414C57.943 18.2835 58.0625 18.1611 58.2012 18.0742C58.3401 17.9794 58.5223 17.9316 58.7461 17.9316C58.9541 17.9317 59.1389 17.9796 59.3008 18.0742C59.4706 18.1691 59.6528 18.2712 59.8457 18.3818C60.0386 18.4925 60.262 18.5956 60.5166 18.6904C60.779 18.7853 61.1074 18.833 61.501 18.833C61.7786 18.833 62.0142 18.8053 62.207 18.75C62.3998 18.6868 62.5542 18.6037 62.6699 18.501C62.7856 18.3982 62.8708 18.2837 62.9248 18.1572C62.9788 18.0308 63.0059 17.9 63.0059 17.7656C63.0058 17.5208 62.9246 17.3191 62.7627 17.1611C62.6007 17.0031 62.3883 16.8685 62.126 16.7578C61.8636 16.6393 61.5622 16.5333 61.2227 16.4385C60.8908 16.3357 60.5514 16.2202 60.2041 16.0938C59.8569 15.9673 59.5133 15.8174 59.1738 15.6436C58.8421 15.4618 58.5446 15.2365 58.2822 14.9678C58.02 14.6912 57.8075 14.355 57.6455 13.96C57.4836 13.5649 57.4033 13.0863 57.4033 12.5254C57.4034 12.0039 57.4995 11.5101 57.6924 11.0439C57.893 10.5697 58.1904 10.1545 58.584 9.79883C58.9775 9.44331 59.4714 9.16247 60.0654 8.95703C60.6595 8.74373 61.3539 8.63773 62.1484 8.6377ZM72.623 8.85059H75.54V11.3643H72.623V17.4697C72.6231 17.754 72.6883 17.9911 72.8193 18.1807C72.9582 18.3624 73.1555 18.4531 73.4102 18.4531C73.5413 18.4531 73.6495 18.4417 73.7344 18.418C73.8269 18.3864 73.9041 18.3548 73.9658 18.3232C74.035 18.2839 74.0965 18.2522 74.1504 18.2285C74.2121 18.1969 74.2822 18.1807 74.3594 18.1807C74.4673 18.1807 74.5526 18.2084 74.6143 18.2637C74.6836 18.3111 74.7529 18.3904 74.8223 18.501L75.9102 20.2432C75.4471 20.5988 74.9264 20.868 74.3477 21.0498C73.769 21.2237 73.171 21.3105 72.5537 21.3105C71.9827 21.3105 71.477 21.2275 71.0371 21.0615C70.6051 20.8877 70.2384 20.647 69.9375 20.3389C69.6443 20.0227 69.42 19.6428 69.2656 19.2002C69.1114 18.7578 69.0342 18.2639 69.0342 17.7188V11.3643H68.0156C67.8306 11.3642 67.6721 11.305 67.541 11.1865C67.4098 11.0601 67.3447 10.8777 67.3447 10.6406V9.20605L69.2549 8.82715L69.9609 5.82715C70.0536 5.44806 70.3161 5.25879 70.748 5.25879H72.623V8.85059ZM82.8418 8.58984C83.567 8.58988 84.2192 8.71206 84.7979 8.95703C85.3843 9.19412 85.878 9.53021 86.2793 9.96484C86.6882 10.3916 87.0007 10.9015 87.2168 11.4941C87.4329 12.0869 87.541 12.7351 87.541 13.4385V21.1211H85.8975C85.558 21.1211 85.2996 21.0733 85.1221 20.9785C84.9523 20.8837 84.8091 20.6861 84.6934 20.3857L84.4385 19.71C84.1376 19.9707 83.8481 20.1999 83.5703 20.3975C83.2925 20.595 83.0031 20.765 82.7021 20.9072C82.409 21.0415 82.0924 21.1409 81.7529 21.2041C81.4213 21.2751 81.0512 21.3105 80.6426 21.3105C80.0947 21.3105 79.596 21.2399 79.1484 21.0977C78.701 20.9475 78.3192 20.7297 78.0029 20.4453C77.6943 20.1608 77.4549 19.8085 77.2852 19.3896C77.1155 18.9629 77.0303 18.473 77.0303 17.9199C77.0303 17.4852 77.1384 17.0385 77.3545 16.5801C77.5705 16.1218 77.9452 15.7073 78.4775 15.3359C79.01 14.9566 79.728 14.6396 80.6309 14.3867C81.5336 14.1339 82.6717 13.9916 84.0449 13.96V13.4385C84.0449 12.7194 83.8986 12.2019 83.6055 11.8857C83.32 11.5618 82.9111 11.3995 82.3789 11.3994C81.9546 11.3994 81.607 11.4472 81.3369 11.542C81.0668 11.6368 80.8235 11.7438 80.6074 11.8623C80.3992 11.9808 80.1946 12.0869 79.9941 12.1816C79.7935 12.2765 79.5541 12.3242 79.2764 12.3242C79.0295 12.3242 78.8171 12.265 78.6396 12.1465C78.4699 12.02 78.3347 11.8654 78.2344 11.6836L77.5859 10.5342C78.3113 9.87818 79.1144 9.39231 79.9941 9.07617C80.8816 8.75215 81.8309 8.58984 82.8418 8.58984ZM115.26 8.6377C116.054 8.63773 116.78 8.76373 117.436 9.0166C118.099 9.26948 118.666 9.63713 119.137 10.1191C119.615 10.6012 119.986 11.1941 120.248 11.8975C120.518 12.593 120.653 13.3834 120.653 14.2686C120.653 14.5452 120.642 14.7705 120.619 14.9443C120.596 15.1182 120.553 15.2566 120.491 15.3594C120.43 15.4618 120.345 15.5327 120.237 15.5723C120.137 15.6117 120.006 15.6318 119.844 15.6318H112.921C113.037 16.6592 113.342 17.4058 113.836 17.8721C114.33 18.3304 114.966 18.5605 115.745 18.5605C116.162 18.5605 116.521 18.509 116.822 18.4062C117.123 18.3035 117.39 18.1889 117.621 18.0625C117.86 17.9362 118.076 17.8214 118.269 17.7188C118.469 17.616 118.678 17.5645 118.895 17.5645C119.18 17.5646 119.395 17.6715 119.542 17.8848L120.584 19.2002C120.214 19.6349 119.812 19.991 119.38 20.2676C118.956 20.5362 118.516 20.7492 118.061 20.9072C117.613 21.0574 117.161 21.1605 116.706 21.2158C116.259 21.279 115.831 21.3105 115.422 21.3105C114.581 21.3105 113.79 21.1721 113.049 20.8955C112.316 20.611 111.671 20.1919 111.115 19.6387C110.567 19.0855 110.132 18.398 109.808 17.5762C109.491 16.7542 109.333 15.7977 109.333 14.707C109.333 13.8852 109.468 13.107 109.738 12.3721C110.016 11.637 110.41 10.9927 110.919 10.4395C111.436 9.88622 112.057 9.44709 112.782 9.12305C113.515 8.79902 114.341 8.6377 115.26 8.6377ZM137.282 8.58984C138.007 8.58987 138.66 8.71206 139.238 8.95703C139.825 9.19411 140.318 9.53022 140.72 9.96484C141.129 10.3916 141.441 10.9015 141.657 11.4941C141.873 12.0869 141.981 12.7351 141.981 13.4385V21.1211H140.338C139.998 21.1211 139.74 21.0733 139.562 20.9785C139.393 20.8837 139.25 20.6861 139.134 20.3857L138.879 19.71C138.578 19.9707 138.288 20.1999 138.011 20.3975C137.733 20.595 137.443 20.765 137.143 20.9072C136.85 21.0415 136.534 21.1409 136.194 21.2041C135.863 21.2752 135.492 21.3105 135.083 21.3105C134.535 21.3105 134.037 21.2398 133.59 21.0977C133.142 20.9475 132.76 20.7298 132.443 20.4453C132.135 20.1608 131.895 19.8085 131.726 19.3896C131.556 18.9629 131.471 18.473 131.471 17.9199C131.471 17.4852 131.579 17.0385 131.795 16.5801C132.011 16.1218 132.386 15.7073 132.918 15.3359C133.45 14.9566 134.168 14.6396 135.071 14.3867C135.974 14.1339 137.112 13.9916 138.485 13.96V13.4385C138.485 12.7194 138.339 12.2019 138.046 11.8857C137.76 11.5618 137.352 11.3995 136.819 11.3994C136.395 11.3994 136.047 11.4472 135.777 11.542C135.507 11.6368 135.264 11.7438 135.048 11.8623C134.84 11.9808 134.635 12.0869 134.435 12.1816C134.234 12.2765 133.995 12.3242 133.717 12.3242C133.47 12.3242 133.258 12.265 133.08 12.1465C132.91 12.02 132.775 11.8654 132.675 11.6836L132.026 10.5342C132.752 9.87818 133.555 9.39231 134.435 9.07617C135.322 8.75214 136.271 8.58984 137.282 8.58984ZM93.793 21.1211H90.2051V8.82715H93.793V21.1211ZM103.497 8.6377C104.153 8.6377 104.732 8.75606 105.233 8.99316C105.743 9.22236 106.171 9.546 106.519 9.96484C106.866 10.3758 107.128 10.8703 107.306 11.4473C107.483 12.0162 107.571 12.6369 107.571 13.3086V21.1211H103.983V13.3086C103.983 12.7079 103.848 12.2411 103.578 11.9092C103.308 11.5693 102.91 11.3994 102.386 11.3994C101.992 11.3994 101.622 11.4863 101.274 11.6602C100.927 11.834 100.596 12.0671 100.279 12.3594V21.1211H96.6904V8.82715H98.9131C99.1369 8.82715 99.3221 8.8787 99.4688 8.98145C99.623 9.08419 99.7313 9.23795 99.793 9.44336L100.001 10.1543C100.232 9.93303 100.472 9.72775 100.719 9.53809C100.966 9.34847 101.228 9.19089 101.506 9.06445C101.791 8.93009 102.097 8.82699 102.421 8.75586C102.753 8.67688 103.111 8.6377 103.497 8.6377ZM129.357 8.58984C129.905 8.58992 130.345 8.72452 130.677 8.99316L130.214 11.6963C130.183 11.8621 130.121 11.9807 130.028 12.0518C129.936 12.1149 129.812 12.1464 129.658 12.1465C129.527 12.1465 129.373 12.1302 129.195 12.0986C129.018 12.0591 128.794 12.04 128.523 12.04C127.582 12.0401 126.841 12.5536 126.301 13.5811V21.1211H122.713V8.82715H124.843C125.02 8.82716 125.167 8.84247 125.282 8.87402C125.406 8.9056 125.506 8.95732 125.583 9.02832C125.668 9.09151 125.73 9.1785 125.769 9.28906C125.815 9.39971 125.854 9.53431 125.885 9.69238L126.081 10.8428C126.521 10.1473 127.015 9.59741 127.562 9.19434C128.11 8.79125 128.709 8.58984 129.357 8.58984ZM84.0449 16.1182C83.3275 16.1498 82.7373 16.2128 82.2744 16.3076C81.8115 16.4024 81.4449 16.5209 81.1748 16.6631C80.9047 16.8053 80.7155 16.9676 80.6074 17.1494C80.5071 17.3312 80.457 17.5288 80.457 17.7422C80.457 18.161 80.5692 18.457 80.793 18.6309C81.0167 18.7968 81.3443 18.8799 81.7764 18.8799C82.2394 18.8799 82.6449 18.7968 82.9922 18.6309C83.3393 18.4649 83.6901 18.1964 84.0449 17.8252V16.1182ZM138.485 16.1182C137.768 16.1498 137.178 16.2128 136.715 16.3076C136.252 16.4024 135.885 16.5209 135.615 16.6631C135.345 16.8053 135.156 16.9676 135.048 17.1494C134.948 17.3312 134.897 17.5288 134.897 17.7422C134.897 18.161 135.01 18.457 135.233 18.6309C135.457 18.7968 135.785 18.8799 136.217 18.8799C136.68 18.8799 137.085 18.7968 137.433 18.6309C137.78 18.4649 138.131 18.1964 138.485 17.8252V16.1182ZM23.833 0.804688C25.9494 0.804688 27.7158 2.62041 27.7158 4.73242C27.7158 6.84439 25.9493 8.46289 23.833 8.46289H14.1279C11.8943 8.46289 9.97089 10.3608 9.9707 12.5898V14.6992C9.97059 16.7918 8.36635 18.8123 6.26953 18.8125C4.17247 18.8125 2.4668 16.7939 2.4668 14.7012V4.94434C2.4669 2.71533 4.29965 0.804901 6.5332 0.804688H23.833ZM115.329 11.1738C114.642 11.1738 114.106 11.3762 113.72 11.7793C113.334 12.1745 113.079 12.7474 112.956 13.498H117.436C117.436 13.2057 117.397 12.9211 117.32 12.6445C117.251 12.3679 117.131 12.1226 116.961 11.9092C116.799 11.6879 116.583 11.5103 116.312 11.376C116.042 11.2417 115.715 11.1739 115.329 11.1738ZM92.0107 3.30273C92.3117 3.30275 92.5931 3.35812 92.8555 3.46875C93.1255 3.57938 93.3609 3.73313 93.5615 3.93066C93.7621 4.12822 93.9204 4.3574 94.0361 4.61816C94.1519 4.87897 94.21 5.15964 94.21 5.45996C94.21 5.75239 94.1519 6.02922 94.0361 6.29004C93.9204 6.54287 93.7621 6.76828 93.5615 6.96582C93.3609 7.15542 93.1255 7.30922 92.8555 7.42773C92.5931 7.53836 92.3116 7.59373 92.0107 7.59375C91.7175 7.59375 91.4431 7.53838 91.1885 7.42773C90.934 7.30923 90.7064 7.15537 90.5059 6.96582C90.313 6.76829 90.1587 6.54287 90.043 6.29004C89.9349 6.02922 89.8809 5.75239 89.8809 5.45996C89.8809 5.15964 89.9349 4.87897 90.043 4.61816C90.1587 4.35741 90.313 4.12822 90.5059 3.93066C90.7064 3.73319 90.934 3.57938 91.1885 3.46875C91.4431 3.3581 91.7175 3.30273 92.0107 3.30273Z" fill="white"/>
</svg>